<svg xmlns="http://www.w3.org/2000/svg" viewBox="0 0 436.06 75.37"><path d="M402.46 23.3C390.1 37.36 389 39.57 382.05 41.56a83.63 83.63 0 0 1-9.92 2.4 10.59 10.59 0 0 0-4.77 3.19c-1.29 1.83-1.37 2.92 2.26 3.25a145.75 145.75 0 0 0 20.54.21c14.28-.76 29.61-1.25 41.24-8 2.56-1.52 5.85-2.8 4.23 2.85-.37 1-5.32 6.1-10.92 12a16.39 16.39 0 0 1-4 3.37c-2.25 1.2-5.29 1.65-12.08 2.2-2.3.21-15.14 1.61-26.92 2.4-8.9.62-17.2.71-19.84.79-6.71.27-9.93-4-10.57-8.58-.52-3.67.26-8.51 3.15-11 5.4-4.84 9.55-7.82 21.55-10.31 4.59-.93 10.26-3 10.19-4.24-.08-1.46-2.24-1.7-6.86-1.24a38.75 38.75 0 0 0-12.22 3.24c-6.6 3-12.81 8.38-26.09 17.45C317 68 296.5 75.91 289.79 68.39c-1.27-1.47-2.87-4.84-.64-9.59a22.83 22.83 0 0 1 4.71-6.8c1.09-1.12 2.05-2.38 3.09-3.43.33-.35.82-.68 1.13-1 .82-.86 1.31-1 1.69-.74a3.4 3.4 0 0 1 .94 2 5.52 5.52 0 0 0 3.49 3.54c2.13.74 6.2 2 15.25.75C328 52 340.65 45.4 351.27 37.4c2.42-1.82 9-6.63 12.87-9.43a69.53 69.53 0 0 1 14.14-8.28A57.51 57.51 0 0 1 395 15.24c1.82-.15 5.09-.24 6.58.66s2.82 3.06 2.5 4.32a6.77 6.77 0 0 1-1.64 3.08M242.53 38.87c.31 1.26-3.17 5-6.54 7.08-3.88 2.46-9 3.3-9.12.65-.09-1.67 3.37-5.16 6.65-7.07 3.65-2.12 8.34-3.22 9-.66m-1.7-11.17c5.89-1.26 11.2-.2 10.74 3.67a2 2 0 0 0 .95 2 2.89 2.89 0 0 1 1.63 1c1 1.29 1.21 3.38.31 4a15.83 15.83 0 0 0-3.79 3.26c-2.22 2.51-1.88 5 3.13 2.57 1.08-.5 2.67-2.2 4.28-3.48 8.67-9.66 10.15-10 14.17-11.19 1.11-.32 3.46-1 4.63.34 1.14 1 1.34 2.45-.1 3.87-1 .87-2.34 2.32-3.85 3.91a16.1 16.1 0 0 0-3.92 7.4c.94 1.18 4.06-1.38 7.08-4.13a38.66 38.66 0 0 0 7-7.64c5.87-8.45 10.77-9.81 17-7.67 1.68.86 2.77 2.09 1.35 3.53-1.35 1-4.33 3.12-8.11 6.1-2.5 2-5.38 5.61-8.08 8.59-7 7.75-9.26 12.27-12.93 16.47-8.63 10.83-16 14.67-27.67 15.06-7.08-.09-11.32.61-17-2.39-3.74-1.93-4.09-2.51-4.1-3.12a3.68 3.68 0 0 1 .56-2.74c.57-.89 1.63-1.83 4.55-2.87a11.85 11.85 0 0 1 5.24-1.15c3 0 3.33.72 5.86 2.53 5.82 3.66 15.81.71 20.24-2.58 2.87-2.11 6.05-6.19 7.52-7.74-8.17 2.45-11.06-1-11.37-4-9.77 6.62-15 4-15.43-.29-2.41 3.3-10.21 7.67-13.47 8.09.09.75.72 1.52.45 2.74-.14.68-.53.93-1.36 1.77A12.62 12.62 0 0 1 220 66.1c-8 1.07-9 2.12-8.73-5.37-3.4-4-20.52-15.48-30.54-15.16-5.59.17-13.48 7.85-13.63 10.3 1 3.1 1.9 5.36-1.15 6.2a89.56 89.56 0 0 1-13.84 2.32c-7.22.45-5.09-5.77-3.61-7.72a59.88 59.88 0 0 1 5.65-6.06c2.64-2.22 5.08-4 6.88-5.53 1.5-1 25.16-19.23 36.83-24.65a42.14 42.14 0 0 1 6.14-2.55c1.47-.4 7.21-.88 8.21-.35a8.54 8.54 0 0 1 2 1.36c.9 1.37 1.43 2.87-3.77 4.74-3.31 1.37-15.44 8.75-17.16 10.19-.66.86.45 1.15.83 1.12 18.54-1.1 27.89-7.94 30.06-11.43a3.64 3.64 0 0 0 .44-2.44c-.61-3.07-3.61-5.31-8.74-5.43a60.36 60.36 0 0 0-7.84-.11c-2.36.17-6.13.52-9 .91a54.91 54.91 0 0 0-18.48 5.25A30.41 30.41 0 0 0 169.46 31c-1.47 2.12-3.28 3.8-4.84 3.84-1.4 0-1.79-.7-2.17-2.73s-.38-9.81 5.82-13.44c7.65-4.48 14.78-7.1 40.09-8.7 9.8-.34 18.12.93 23.12 3s7.92 8.42 5.94 12a20.7 20.7 0 0 1-5.91 6.32 27.54 27.54 0 0 1 9.31-3.67m-13.47 6.5a29.67 29.67 0 0 0-6.88 6.88 17.6 17.6 0 0 0-3.89 8c-.11.76-.78.8-1.36.7a140.49 140.49 0 0 0-20.79-7.7 102.23 102.23 0 0 0 22.46-3.29c6.37-1.88 8.25-3 10.46-4.5m-100.52 4.22c5.8.9-9.74 15.18-15.19 12.7-5.65-2.6 8.21-13.84 15.19-12.7m29.84 6.17a113.23 113.23 0 0 1-9.86 8.57c-6.95 4.69-18 5.33-20.17-.06.09.23-.18-.76-.75-.23-4.12 4.76-22.93 13.27-24.26 1.59-.33 0-.49-.6-1.33-.67-4.55 3.24-16.67 8-32.77-1.19-5.72 4.21-31 13-59.8-.07a30.22 30.22 0 0 1-4-2.22C1.75 49-2 45 1.27 40c10-11.43 11.51-4.8 11.37-2.5.25 1.83 0 3.12 3.48 5.81 6.65 5.2 17.56 8.89 26.78 8.61S64.26 48 58.56 43.71a134.69 134.69 0 0 0-20-8.47c-7.07-1.79-5.88-12.41-.89-14.68 3.71-1.7 10.44-4.41 23.15-6.48 13.76-2.27 28.25-2.52 40.41.84 1.9.53 13.77 3.78-3.19 12.33a13.36 13.36 0 0 1-3.58.88c-.83.06-1.58 0-1.58-.29-2.21-.9 3.26-5.95-2.54-7.07a68.25 68.25 0 0 0-14.24-1.23c-11.2.15-22.61 2.07-27.26 4.51-2.67 1.41-3.3 4-1.48 4.5C54.7 30.68 64.67 34.6 71 40.4c1.45-.13 2.66-1.51 3.11-1.83 6.77-4.65 10.2-6.23 13.55-7.11a61.68 61.68 0 0 1 6.14-.8 64.77 64.77 0 0 1 6.55.53 5.49 5.49 0 0 1 3.65 7.28c.42.37-1.18 2.39-2.69 3.6-2 1.6-3.49 1.85-5.09 2.77a34.84 34.84 0 0 1-13.67 1.39c-1.54 6.5 8.75 3.34 11 2.61a56.12 56.12 0 0 0 9.84-5.19c2.19-1.54 3.86-2.76 4.75-3.29 18.2-14.87 26.07-10.7 29.14-6.2.71 1 1.67 1.83 1.16 4.47 2.39 2.56.38 4.17-3.05 7.57-1.07 1.63.51 4.93 7.63 1.23 4.72-2.41 9-5.94 11.66-7 2-.75 3 1.56 3 2.75-.11.45-.15.37-1 1.38m-70-4.69c-.63-1.74 7.65-4 8.64-2.89 1.15 1.7-6.3 4.1-8.64 2.89m315.6-25.69c-1.49-.91-6.26-.83-8.09-.7-4 .29-10.78 2.07-16.74 4.64a67.62 67.62 0 0 0-13.91 8.2c-3.88 2.8-10.43 7.6-12.85 9.43-10.63 8-23.4 14.48-32 15.69-9 1.26-13-.18-14.28-1a6.64 6.64 0 0 1-2.27-2.6c-.12-.19.44.94-.14-.65s.07-3.93.28-4.68a8.85 8.85 0 0 1 1.24-2.4 59.55 59.55 0 0 1 6.06-7.31c1.25-1.51 4.53-4 4 2.33.15 1.15 1.74 2.36 3.86 3.17 4 1.51 16.67 1.92 33.6-10.09 10.54-7.54 21.75-18.65 35-23.64 8.47-3.15 19.1-6.16 29.2-3.67a3.55 3.55 0 0 1 1.5 5.72c-3.33 3.63-6 7-8.8 9.69a2.82 2.82 0 0 1-1.21.73 1.72 1.72 0 0 1-1.85-.27 11.1 11.1 0 0 0-2.54-2.57" fill="#fff" fill-rule="evenodd"/></svg>